PathFileType	4	(X/Y/Z)	S01_0012_Gait_markers.trc
DataRate	CameraRate	NumFrames	NumMarkers	Units	OrigDataRate	OrigDataStartFrame	OrigNumFrames
250.000000	250.000000	4	54	mm	250.000000	80	321
Frame#	Time	HEAD_ANT			R_HEAD			L_HEAD			C7			R_BACK			L_BACK			STERNUM			R_ACROMION			R_HUM_PROX			R_HUM_ANT			R_HUM_POST			R_ELBOW_LAT			R_ELBOW_MED			R_FOREARM			R_WIRST_LAT			R_WRITS_MED			R_HAND			L_ACROMION			L_HUM_PROX			L_HUM_ANT			L_HUM_POST			L_ELBOW_LAT			L_ELBOW_MED			L_FOREARM			L_WRIST_LAT			L_WIRST_MED			L_HAND			R_ILIAC			SACRUM			L_ILIAC			R_GTROCH			R_THIGH__1			R_THIGH_2			R_THIGH_3			R_THIGH_4			R_SHANK_1			R_SHANK_2			R_SHANK_3			R_SHANK_4			R_HEEL			R_FOOT_LAT			R_FOOT_MED			L_GTROCH			L_THIGH_1			L_THIGH_2			L_THIGH_3			L_THIGH_4			L_SHANK_1			L_SHANK_2			L_SHANK_3			L_SHANK_4			L_HEEL			L_FOOT_LAT			L_FOOT_MED			
		X1	Y1	Z1	X2	Y2	Z2	X3	Y3	Z3	X4	Y4	Z4	X5	Y5	Z5	X6	Y6	Z6	X7	Y7	Z7	X8	Y8	Z8	X9	Y9	Z9	X10	Y10	Z10	X11	Y11	Z11	X12	Y12	Z12	X13	Y13	Z13	X14	Y14	Z14	X15	Y15	Z15	X16	Y16	Z16	X17	Y17	Z17	X18	Y18	Z18	X19	Y19	Z19	X20	Y20	Z20	X21	Y21	Z21	X22	Y22	Z22	X23	Y23	Z23	X24	Y24	Z24	X25	Y25	Z25	X26	Y26	Z26	X27	Y27	Z27	X28	Y28	Z28	X29	Y29	Z29	X30	Y30	Z30	X31	Y31	Z31	X32	Y32	Z32	X33	Y33	Z33	X34	Y34	Z34	X35	Y35	Z35	X36	Y36	Z36	X37	Y37	Z37	X38	Y38	Z38	X39	Y39	Z39	X40	Y40	Z40	X41	Y41	Z41	X42	Y42	Z42	X43	Y43	Z43	X44	Y44	Z44	X45	Y45	Z45	X46	Y46	Z46	X47	Y47	Z47	X48	Y48	Z48	X49	Y49	Z49	X50	Y50	Z50	X51	Y51	Z51	X52	Y52	Z52	X53	Y53	Z53	X54	Y54	Z54	

81	0.32	607.7884521484375	1743.6474609375	-288.6347351074215	549.9864501953125	1686.456298828125	-215.0584106445309	549.7299194335938	1699.3505859375	-362.2909851074215	416.4042053222656	1520.871215820312	-302.6859436035153	346.78564453125	1322.22802734375	-242.3923187255857	348.7711181640625	1328.53125	-380.6551208496091	596.8564453125	1360.851928710938	-303.8078918457028	491.0949401855469	1469.796752929688	-131.4834136962887	451.26220703125	1308.79443359375	-45.92373657226533	511.2962341308594	1222.267822265625	-43.79318618774387	390.1587829589844	1225.876586914062	-34.62122726440403	436.3025817871094	1118.812744140625	-30.84587097167944	408.0223083496094	1117.411987304688	-109.3927001953123	541.022705078125	937.474365234375	-39.52838516235331	579.9299926757812	876.5471801757812	-84.17974090576152	514.9337158203125	847.5715942382812	-44.6080780029295	589.6294555664062	784.8932495117188	-36.83621597290021	500.6737365722656	1483.551513671875	-470.5107116699215	480.7110900878906	1318.608032226563	-569.8365478515622	540.2636108398438	1235.888793945313	-566.3171386718748	421.3600158691406	1243.340209960938	-599.5092163085935	476.3055725097656	1137.003173828125	-605.746154785156	420.5403137207031	1131.95703125	-551.4538574218748	574.2978515625	956.3787231445314	-585.9312744140623	593.7410278320312	893.1058349609376	-532.935607910156	558.9475708007812	875.6546630859376	-601.4392089843748	629.6898193359375	813.0670166015626	-576.6561889648435	495.4437255859375	1075.203979492188	-142.0947418212888	363.2548828125	1048.77978515625	-309.5679016113279	480.2070922851562	1062.10107421875	-486.7386169433591	450.6614990234375	930.0306396484375	-125.9131698608396	513.7249145507812	648.5984497070312	-157.5584564208983	568.7503051757812	670.0113525390625	-154.2836151123045	581.3568115234375	570.6674194335938	-195.0665740966796	517.777587890625	569.9304809570312	-181.8229522705077	504.0238037109375	343.7551879882813	-185.8547821044921	557.4874877929688	321.6560974121094	-204.3619689941405	548.5299072265625	238.3834075927735	-225.2337799072265	486.0160827636719	246.529281616211	-210.7925720214843	430.3995666503906	45.00242996215827	-300.0377502441406	589.7542114257812	19.46483612060551	-209.5767974853516	650.1401977539062	29.43040275573737	-310.6976013183594	445.3146667480469	946.9394531250001	-489.8146057128904	557.1898803710938	661.7207031250001	-496.6867370605467	501.251708984375	679.9880981445314	-504.0999450683592	494.3458862304688	575.0696411132814	-484.4860229492186	558.7783813476562	580.1953125000001	-483.6651611328124	382.7885131835938	365.0518798828126	-478.4261169433593	330.9265441894531	395.6895751953126	-477.5249938964843	263.7311401367188	341.7779541015626	-459.1661682128906	309.0993347167969	296.4424743652345	-456.2233276367187	107.1777114868164	262.1838073730469	-382.7387084960937	163.3717041015625	96.62514495849619	-448.5102233886719	200.1668395996094	79.93585205078134	-356.8273010253906	
82	0.324	613.6058349609375	1744.557861328125	-288.6987915039059	555.7003784179688	1687.408813476562	-215.0517120361324	555.3297729492188	1700.148193359375	-362.3751220703121	421.947021484375	1521.678100585938	-302.6595764160153	352.4108276367188	1323.00927734375	-242.1063232421872	354.2827453613281	1329.292114257812	-379.9546813964841	602.4417724609375	1361.647216796875	-304.4873352050778	497.0238647460938	1470.725708007812	-131.5220642089841	457.4851684570312	1309.819458007812	-45.69323730468721	517.85205078125	1223.342041015625	-43.76839447021457	396.68994140625	1226.699951171875	-34.12145996093723	442.409423828125	1119.942626953125	-30.54910087585424	414.3260192871094	1118.455810546875	-108.8007736206052	548.6314697265625	939.08203125	-39.6387710571287	587.6612548828125	878.26904296875	-84.69423675537089	523.0433959960938	848.8988037109375	-44.70954513549786	598.0325927734375	786.584228515625	-37.44726562499982	505.7372131347656	1484.413330078125	-470.600433349609	485.4723815917969	1319.384643554688	-569.7567749023434	544.9136352539062	1236.63916015625	-566.5786132812498	425.8048400878906	1244.241943359375	-599.379699707031	480.741943359375	1137.918090820313	-605.8985595703123	425.0504760742188	1132.888427734375	-551.429992675781	578.5753784179688	957.1744384765626	-586.3322143554685	597.49072265625	893.7532348632814	-533.633605957031	562.9193725585938	876.4822998046876	-602.0798339843748	633.4688720703125	813.6654663085939	-577.2091064453123	501.2530822753906	1076.364135742188	-142.2338714599607	368.6580505371094	1049.677490234375	-309.2284545898435	485.998779296875	1063.364013671875	-486.4348144531248	455.6533813476562	930.7498168945312	-125.9803848266599	516.320068359375	649.1760864257812	-157.5848236083983	571.4375	670.0339965820312	-154.1842803955077	583.4546508789062	570.5971069335938	-194.8264770507811	519.5053100585938	570.3424682617188	-181.8740997314452	504.5564270019531	343.9424743652344	-185.9612274169921	557.9644165039062	321.7595214843751	-204.2490844726562	548.858154296875	238.5192871093751	-225.1824951171874	486.2963256835938	246.8262329101563	-211.0174713134765	430.5594787597656	45.33222579956061	-300.2960205078125	589.7725830078125	19.45858764648442	-209.5887298583984	650.3070068359375	29.4704723358155	-310.6747436523438	451.0509033203125	948.1053466796876	-489.833557128906	566.14990234375	663.5546875000001	-496.7444458007811	509.8879699707031	681.0859375000001	-504.414093017578	504.2318420410156	576.0410766601564	-484.8427734374999	568.5219116210938	582.1524047851564	-483.8703613281249	394.1302795410156	365.603240966797	-478.8545227050781	342.0216369628906	395.3437805175782	-477.4606933593749	275.2215270996094	341.6023559570314	-459.4226074218749	321.1159362792969	296.3250732421876	-456.3263549804687	119.0328598022461	260.0261535644532	-382.4479064941406	178.3428039550781	95.97130584716807	-449.4048767089844	216.0200347900391	79.21806335449227	-358.3913879394531	
83	0.328	619.2806396484375	1745.184692382812	-289.0361938476559	561.3086547851562	1688.285766601562	-215.1906280517574	560.913330078125	1700.950439453125	-362.6632995605465	427.7257080078125	1522.67919921875	-302.3525390624997	358.1214904785156	1323.993774414062	-241.484680175781	359.60205078125	1330.019775390625	-379.3958740234372	607.9185180664062	1362.595825195312	-304.571350097656	502.8434753417969	1471.687255859375	-131.5388183593747	463.8677368164062	1310.783569335938	-45.47341918945283	524.3865356445312	1224.374633789062	-43.81821060180637	403.2069396972656	1227.568237304688	-33.57474517822239	449.6039123535156	1120.802490234375	-30.02256393432592	420.9867553710938	1119.235107421875	-108.4301452636716	556.76220703125	940.70947265625	-40.49482727050761	595.4508666992188	879.9739379882812	-83.76345825195293	531.0845336914062	850.281494140625	-44.81816482543926	606.4027099609375	788.2744750976562	-38.07867431640607	510.984130859375	1485.32275390625	-470.5735168457028	490.224609375	1320.26806640625	-569.9368286132809	549.3657836914062	1237.487426757813	-567.2159423828123	430.3748474121094	1245.281616210938	-598.908020019531	485.1372985839844	1138.973876953125	-605.8561401367185	429.7590942382812	1133.939453125	-551.3308105468748	582.6494750976562	957.9445800781251	-586.8185424804685	601.367431640625	894.2867431640626	-533.919738769531	566.964111328125	877.3282470703126	-602.6682128906248	637.4170532226562	814.2518310546876	-577.7902221679685	507.191162109375	1077.472290039062	-142.0146179199216	374.1257629394531	1050.62060546875	-308.7599792480466	491.9161682128906	1064.661254882812	-486.2025756835935	460.5072326660156	931.1514892578125	-125.6838684082029	518.8053588867188	649.5054931640625	-157.7771911621092	574.0582275390625	669.9100952148438	-154.2826385498045	585.215576171875	570.4375	-194.6582641601561	521.3782348632812	570.7916870117188	-181.9041290283202	505.0419616699219	344.2596435546876	-186.0237731933593	558.504638671875	321.9025573730469	-204.1112670898437	549.1641845703125	238.6195373535157	-225.1589660644531	486.5768432617188	247.1768341064454	-211.228775024414	430.7173156738281	45.68880462646491	-300.49267578125	589.7792358398438	19.47763442993169	-209.5753784179688	650.4329833984375	29.41135215759284	-310.6237182617188	456.4992370605469	949.3441772460939	-489.9011535644529	574.6461181640625	665.4368286132814	-496.9925842285155	518.2655029296875	682.3504638671876	-504.5631103515623	513.8114013671875	577.3873291015626	-484.7659301757811	578.0847778320312	583.9206542968751	-483.7200622558593	405.5070190429688	366.0214233398439	-478.8052673339843	353.1607360839844	395.6670532226564	-477.4689331054686	286.9640197753906	340.9753723144532	-459.1871032714843	333.1259155273438	296.1726684570314	-456.5401000976562	130.779052734375	257.4295349121094	-382.3945007324218	193.6694488525391	95.10360717773447	-450.2603149414062	231.7134857177734	78.32023620605477	-359.5392761230469	
84	0.332	624.99072265625	1745.91943359375	-289.2156066894527	567.03369140625	1688.970703125	-215.4702301025387	566.584716796875	1701.66748046875	-362.6944885253902	433.3241577148438	1523.41650390625	-302.3972473144528	363.7525939941406	1324.871459960938	-241.0894927978513	365.12060546875	1330.561645507812	-379.160949707031	613.576171875	1363.502197265625	-304.7640991210935	508.7418212890625	1472.61328125	-131.6503143310543	470.166015625	1311.725952148438	-45.15244293212861	530.9544067382812	1225.451538085938	-43.66566085815403	409.5591125488281	1228.306640625	-33.139652252197	456.73876953125	1121.64599609375	-29.71806907653784	427.8658142089844	1119.89404296875	-108.0561370849607	564.3858032226562	942.0216674804688	-41.69422531127909	603.1492919921875	881.6402587890625	-84.25707244873027	539.115234375	851.5436401367188	-45.12794876098614	615.052001953125	790.1802978515625	-38.63978576660138	516.045654296875	1486.091796875	-470.4838562011715	494.7900390625	1321.145385742188	-570.0008544921872	554.2492065429688	1238.32763671875	-567.464904785156	434.7443542480469	1246.062133789063	-598.7435302734373	489.5426635742188	1139.767578125	-606.0300292968748	436.0147399902344	1134.4990234375	-550.7474365234373	586.7743530273438	958.6358642578126	-587.1906127929685	605.2479858398438	894.7913818359376	-534.474670410156	571.1168823242188	878.2712402343751	-603.4608154296873	641.1826782226562	814.7283325195314	-578.2780761718748	513.0183715820312	1078.53271484375	-141.9939117431638	379.6327209472656	1051.493286132812	-308.4862060546873	497.7896728515625	1065.892333984375	-485.9536437988279	465.4292907714844	931.688720703125	-125.7547607421873	521.2312622070312	649.8700561523438	-157.7626190185545	576.6676025390625	669.5475463867188	-154.316940307617	586.870361328125	570.0219116210938	-194.4273376464843	522.3447875976562	570.3151245117188	-182.1600952148436	505.5242309570312	344.5748901367188	-186.2210083007812	559.0022583007812	322.0432434082032	-204.0457763671874	549.4985961914062	238.7535400390626	-225.1087951660156	486.9477844238281	247.5300598144532	-211.4573516845703	430.8164978027344	45.99077224731452	-300.8529052734375	589.7518310546875	19.48424339294438	-209.67431640625	650.6289672851562	29.49024581909186	-310.5366821289062	462.1612548828125	950.4445800781251	-489.6784057617185	583.6773681640625	667.1928100585939	-496.7779541015623	527.0166625976562	683.5135498046876	-504.7403259277342	523.598388671875	578.5466308593751	-485.0983276367186	587.4873657226562	585.7673950195314	-483.8229980468749	417.0623168945312	366.6834411621095	-479.1820068359374	364.3133239746094	395.4621582031251	-477.2593994140624	298.5788269042969	340.2878723144532	-459.2904357910156	345.1661376953125	295.9984130859376	-456.6521911621093	142.9054260253906	254.6507110595704	-382.1209411621093	208.9815368652344	94.54185485839854	-452.3243103027344	247.8243103027344	77.51489257812509	-360.5028991699219	
